<?xml version="1.0" encoding="UTF-8"?><svg id="Layer_1" xmlns="http://www.w3.org/2000/svg" viewBox="0 0 94.17 33.87"><defs><style>.cls-1{fill:#231f20;stroke-width:0px;}</style></defs><path class="cls-1" d="m10.75,18.02h2.07v4.28c-.32.15-.65.25-1,.33-.35.07-.69.11-1.01.11-.7,0-1.28-.2-1.73-.6s-.78-.95-1-1.66c-.22-.7-.33-1.5-.33-2.4s.12-1.74.35-2.44.58-1.25,1.05-1.65c.47-.4,1.06-.59,1.77-.59.32,0,.63.04.93.13.3.09.59.24.88.44l-.24.52c-.27-.19-.53-.33-.79-.41s-.51-.12-.77-.12c-.59,0-1.07.17-1.45.51-.38.34-.66.82-.85,1.44s-.28,1.35-.28,2.18c0,.78.09,1.48.26,2.1.17.62.44,1.1.81,1.45.37.35.84.53,1.43.53.25,0,.5-.03.74-.08s.47-.12.68-.2v-3.33h-1.52v-.56Z"/><path class="cls-1" d="m15.91,15.74c.43,0,.77.14,1.03.42s.45.65.57,1.11c.12.46.18.95.18,1.49v.49h-3.11c0,.97.13,1.71.4,2.22s.66.76,1.2.76c.22,0,.44-.04.65-.12.21-.08.43-.2.65-.35v.58c-.19.13-.4.23-.62.31-.22.07-.46.11-.72.11-.49,0-.89-.15-1.21-.44s-.54-.7-.69-1.22c-.14-.52-.22-1.13-.22-1.83s.07-1.35.21-1.87c.14-.52.35-.93.63-1.21s.63-.43,1.05-.43Zm0,.52c-.39,0-.69.2-.92.61-.23.41-.36,1.03-.39,1.87h2.57c0-.45-.04-.86-.13-1.24-.09-.38-.22-.68-.4-.91-.18-.23-.42-.34-.72-.34Z"/><path class="cls-1" d="m20.89,15.75c.08,0,.17,0,.26.03.09.02.19.05.28.1l-.12.58c-.06-.02-.13-.05-.21-.07-.08-.02-.16-.03-.25-.03-.2,0-.38.08-.54.24-.16.16-.29.37-.4.63s-.19.56-.25.88c-.06.32-.08.65-.08.97v3.54h-.57v-6.76h.43l.09,1.38h.04c.07-.24.16-.48.27-.71.11-.23.25-.41.42-.56.17-.15.37-.22.6-.22Z"/><path class="cls-1" d="m23.53,22.21c.1,0,.2-.01.3-.04.1-.02.18-.06.25-.09v.51c-.09.05-.2.08-.31.11-.11.03-.24.04-.37.04-.26,0-.47-.06-.62-.19-.15-.12-.25-.31-.32-.55s-.1-.55-.1-.91v-4.72h-.6v-.35l.6-.16.15-1.61h.41v1.6h1.14v.52h-1.14v4.7c0,.39.04.67.12.85.08.18.24.28.47.28Z"/><path class="cls-1" d="m26.96,15.75c.08,0,.17,0,.26.03.09.02.19.05.28.1l-.12.58c-.06-.02-.13-.05-.21-.07-.08-.02-.16-.03-.25-.03-.2,0-.38.08-.54.24-.16.16-.29.37-.4.63s-.19.56-.25.88c-.06.32-.08.65-.08.97v3.54h-.57v-6.76h.43l.09,1.38h.04c.07-.24.16-.48.27-.71.11-.23.25-.41.42-.56.17-.15.37-.22.6-.22Z"/><path class="cls-1" d="m31.9,15.86v6.76h-.45l-.05-1.23h-.04c-.07.24-.17.46-.29.66s-.29.37-.48.5-.44.19-.73.19c-.34,0-.62-.09-.83-.26s-.37-.43-.47-.77-.15-.76-.15-1.25v-4.6h.56v4.46c0,.65.08,1.13.25,1.43.16.3.41.44.73.44s.56-.09.76-.28.36-.47.47-.85c.11-.39.16-.87.16-1.46v-3.74h.56Z"/><path class="cls-1" d="m35.09,22.74c-.6,0-1.06-.29-1.37-.88-.31-.59-.46-1.44-.46-2.56s.16-2.05.48-2.66.77-.92,1.36-.92c.26,0,.49.06.69.18s.37.27.51.46.24.39.31.61h.03c0-.17-.01-.33-.02-.48,0-.15,0-.29,0-.42v-3.13h.56v9.67h-.44l-.08-1.17h-.04c-.07.22-.17.44-.3.63-.13.2-.3.36-.5.48s-.44.18-.72.18Zm.09-.53c.46,0,.82-.22,1.07-.67.25-.45.37-1.06.37-1.85v-.88c0-.8-.12-1.42-.37-1.86s-.59-.67-1.05-.67-.79.26-1.02.77-.35,1.27-.35,2.26c0,.93.11,1.65.32,2.15.21.51.56.76,1.03.76Z"/><path class="cls-1" d="m45.76,17.96c0,1.02-.11,1.88-.33,2.57s-.55,1.21-.99,1.56c-.44.35-.99.53-1.64.53h-1.68v-9.09h1.75c.64,0,1.17.17,1.6.5.43.34.75.83.97,1.49s.33,1.47.33,2.44Zm-.97.05c0-.79-.07-1.45-.22-1.99-.14-.53-.36-.94-.65-1.21s-.65-.4-1.1-.4h-.79v7.32h.71c.71,0,1.22-.31,1.55-.94s.49-1.55.49-2.78Z"/><path class="cls-1" d="m46.43,15.79h.93l.91,3.99c.04.17.07.34.1.51.03.17.06.33.09.49s.05.33.07.49h.05c.03-.24.07-.48.12-.73s.1-.5.16-.77l.88-3.98h.93l-1.91,7.92c-.11.46-.25.83-.4,1.12s-.33.5-.54.64-.45.21-.73.21c-.09,0-.19-.01-.28-.03-.09-.02-.19-.05-.3-.07v-.85c.07.03.15.05.23.07s.16.02.23.02c.15,0,.28-.04.38-.12.11-.08.2-.21.28-.4s.16-.44.24-.76l.23-.96-1.69-6.78Z"/><path class="cls-1" d="m53.11,22.74c-.61,0-1.08-.3-1.4-.9-.32-.6-.48-1.47-.48-2.62s.16-2.02.48-2.63c.32-.62.78-.92,1.37-.92.21,0,.4.04.59.13s.35.21.5.36.27.34.37.56h.04c0-.19-.01-.36-.02-.51s0-.29,0-.43v-2.83h.9v9.67h-.72l-.12-.92h-.05c-.11.22-.23.4-.37.56-.14.16-.29.28-.47.36s-.37.12-.59.12Zm.2-.81c.41,0,.71-.2.92-.6s.31-1,.31-1.78v-.47c0-.87-.1-1.51-.3-1.93s-.52-.63-.95-.63c-.39,0-.68.23-.86.69-.19.46-.28,1.13-.28,2.01s.09,1.56.28,2.02c.19.46.48.69.88.69Z"/><path class="cls-1" d="m58.77,15.68c.44,0,.8.13,1.08.4s.49.63.63,1.09c.14.46.21.96.21,1.52v.68h-3.06c0,.85.13,1.49.37,1.91s.6.64,1.09.64c.23,0,.46-.04.68-.11s.45-.19.69-.36v.86c-.22.15-.46.25-.7.32s-.5.11-.77.11c-.54,0-.97-.15-1.3-.46s-.57-.72-.72-1.25-.23-1.13-.23-1.79c0-.76.08-1.41.23-1.94s.38-.93.68-1.21.68-.41,1.12-.41Zm0,.78c-.34,0-.61.18-.8.53s-.3.89-.33,1.62h2.21c0-.39-.04-.74-.11-1.07s-.19-.59-.35-.78-.36-.3-.61-.3Z"/><path class="cls-1" d="m64.28,15.67c.51,0,.89.19,1.15.57.26.38.39.96.39,1.73v4.65h-.9v-4.46c0-.55-.07-.96-.2-1.24s-.35-.41-.64-.41c-.42,0-.73.2-.93.6-.2.4-.29,1.04-.29,1.91v3.59h-.9v-6.83h.72l.1.99h.06c.09-.23.21-.42.35-.59.14-.17.3-.29.49-.39s.38-.14.6-.14Z"/><path class="cls-1" d="m70.24,20.81c0,.41-.07.76-.21,1.05-.14.29-.34.51-.61.66-.27.15-.59.22-.98.22-.3,0-.57-.04-.81-.11-.25-.07-.46-.16-.63-.27v-.99c.17.15.38.27.64.37.25.1.51.15.77.15.3,0,.53-.09.69-.27.16-.18.24-.44.24-.76,0-.19-.03-.36-.1-.51-.07-.14-.17-.28-.32-.41-.15-.13-.34-.27-.58-.41-.27-.17-.5-.35-.71-.54s-.36-.4-.48-.64c-.11-.24-.17-.54-.17-.89,0-.53.16-.96.49-1.29.33-.33.76-.49,1.29-.49.27,0,.52.04.76.11.24.07.47.18.68.33l-.34.77c-.16-.12-.34-.22-.52-.29s-.38-.11-.57-.11c-.29,0-.51.08-.68.25-.17.17-.25.4-.25.68,0,.19.03.35.1.49s.18.27.33.4.35.27.6.44c.27.18.5.36.7.54.2.18.36.4.47.64s.17.54.17.89Z"/><path class="cls-1" d="m72.31,12.95v2.85c0,.13,0,.28,0,.44s-.01.34-.02.52h.04c.16-.36.36-.62.6-.81s.51-.27.82-.27c.61,0,1.08.3,1.4.89s.48,1.47.48,2.62c0,.76-.07,1.41-.21,1.94s-.35.93-.63,1.2c-.28.27-.61.41-1.01.41-.32,0-.59-.08-.83-.25s-.44-.43-.62-.78h-.05l-.13.91h-.73v-9.67h.9Zm1.24,3.57c-.33,0-.58.11-.76.33s-.3.53-.38.91-.11.82-.11,1.32v.29c0,.86.1,1.5.31,1.92s.52.62.93.62c.38,0,.67-.22.86-.67.19-.44.28-1.13.28-2.07,0-.88-.09-1.54-.27-1.99-.18-.45-.47-.67-.87-.67Z"/><path class="cls-1" d="m80.89,19.2c0,.54-.04,1.03-.13,1.46s-.22.81-.39,1.12c-.18.31-.4.55-.67.71-.27.17-.59.25-.96.25s-.66-.08-.93-.25c-.27-.17-.49-.4-.66-.71s-.31-.68-.4-1.12c-.09-.44-.13-.92-.13-1.46,0-.75.08-1.39.23-1.92.15-.52.39-.92.7-1.2.32-.28.72-.41,1.21-.41.46,0,.84.13,1.16.4s.56.66.72,1.19c.16.52.25,1.17.25,1.94Zm-3.35,0c0,.59.04,1.09.13,1.49s.22.7.4.91c.18.2.41.3.69.3s.5-.1.68-.3.31-.5.4-.9.13-.9.13-1.51-.04-1.09-.13-1.49-.22-.7-.4-.9-.41-.3-.69-.3c-.43,0-.74.23-.93.67s-.29,1.12-.29,2.02Z"/><path class="cls-1" d="m84.33,15.67c.09,0,.18,0,.27.02.09.01.18.04.28.07l-.14.98c-.07-.03-.14-.06-.22-.07-.08-.01-.16-.02-.25-.02-.18,0-.34.06-.48.18-.15.12-.27.29-.38.51-.11.22-.19.47-.24.76s-.08.6-.08.94v3.56h-.9v-6.83h.7l.12,1.21h.06c.09-.26.2-.49.32-.69.12-.2.26-.36.42-.47.16-.11.33-.17.53-.17Z"/><path class="cls-1" d="m87.05,25.68c-.61,0-1.1-.17-1.45-.5s-.53-.8-.53-1.39c0-.47.11-.85.32-1.15s.48-.5.81-.6c-.16-.08-.3-.21-.4-.37-.1-.17-.16-.36-.16-.59s.05-.44.16-.63c.1-.19.25-.37.44-.55-.25-.16-.45-.41-.59-.76s-.22-.75-.22-1.2.07-.86.21-1.2.35-.6.62-.79.59-.28.97-.28c.12,0,.22,0,.31.02.09.01.17.03.24.05s.13.05.19.07h1.59v.62l-.86.11c.11.19.19.4.24.64s.08.48.08.72c0,.7-.16,1.25-.47,1.65s-.75.6-1.32.6c-.18,0-.32-.02-.42-.06-.11.1-.2.22-.28.35-.08.13-.12.3-.12.49,0,.12.03.23.08.32.05.09.13.16.23.21s.23.07.38.07h.93c.48,0,.85.15,1.11.44.26.29.39.74.39,1.34,0,.75-.21,1.32-.64,1.73s-1.03.62-1.83.62Zm.07-.76c.34,0,.62-.05.85-.16s.4-.28.52-.5.17-.5.17-.83c0-.27-.04-.48-.12-.62s-.19-.24-.34-.3c-.15-.05-.33-.08-.53-.08h-.77c-.18,0-.34.04-.49.13-.15.08-.26.22-.35.41-.09.19-.13.44-.13.75,0,.4.11.71.32.91s.5.31.87.31Zm.11-5.48c.28,0,.5-.13.65-.39s.23-.63.23-1.13c0-.52-.08-.91-.24-1.17s-.38-.39-.66-.39-.49.14-.64.41-.23.66-.23,1.16.07.85.22,1.11.37.39.67.39Z"/></svg>