<?xml version="1.0" encoding="UTF-8"?><svg id="Layer_2" xmlns="http://www.w3.org/2000/svg" xmlns:xlink="http://www.w3.org/1999/xlink" viewBox="0 0 215.24 125.53"><defs><style>.cls-1{fill:url(#linear-gradient);}.cls-1,.cls-2{stroke-width:0px;}.cls-2{fill:#7ccdf3;}</style><linearGradient id="linear-gradient" x1="94.69" y1="-43.69" x2="95.31" y2="116.45" gradientUnits="userSpaceOnUse"><stop offset=".06" stop-color="#fff"/><stop offset=".44" stop-color="#1891cc"/></linearGradient></defs><g id="Layer_1-2"><path class="cls-1" d="m.23,115.01V10.16c0-1.87.4-3.74,1.29-5.38C2.8,2.42,5.3-.12,10.12,0c7.41.19,42.98,0,46.83.01,2.05,0,4.05.51,5.79,1.49l14.73,8.34c1.72.98,3.71,1.49,5.74,1.49h97.78c2.02,0,4.04.47,5.72,1.49,1.54.93,3,2.4,3.19,4.64.4,4.83.02,92.2,0,97.31,0,.13,0,.25.03.38.17,1.05.76,7.33-8.79,9.08-9.86,1.81-151.31.2-166.75.02-.78,0-2.33-.1-3.1-.17-3.96-.36-11.04,1.74-11.04-9.07Z"/><path class="cls-2" d="m180.71,124.64l-172.52.9c-5.59.03-9.17-4.03-7.96-9.01L19.41,37.54c1.53-6.31,8.57-11.5,15.64-11.54l169.82-.88c7.07-.04,11.61,5.1,10.07,11.41l-18.59,76.57c-1.53,6.31-8.57,11.5-15.64,11.54Z"/></g></svg>