<?xml version="1.0" encoding="UTF-8"?><svg id="Layer_2" xmlns="http://www.w3.org/2000/svg" xmlns:xlink="http://www.w3.org/1999/xlink" viewBox="0 0 189.84 128.59"><defs><style>.cls-1{fill:url(#linear-gradient);}.cls-1,.cls-2{stroke-width:0px;}.cls-2{fill:#7ccdf3;}</style><linearGradient id="linear-gradient" x1="94.46" y1="-43.4" x2="95.08" y2="115.68" gradientUnits="userSpaceOnUse"><stop offset=".06" stop-color="#fff"/><stop offset=".44" stop-color="#1891cc"/></linearGradient></defs><g id="Layer_1-2"><path class="cls-1" d="m0,114.24V10.09c0-1.86.4-3.72,1.29-5.35C2.57,2.4,5.07-.12,9.89,0c7.41.19,42.98,0,46.83.01,2.05,0,4.05.5,5.79,1.48l14.73,8.29c1.72.97,3.71,1.48,5.74,1.48h97.78c2.02,0,4.04.46,5.72,1.48,1.54.93,3,2.38,3.19,4.6.4,4.8.02,91.59,0,96.66,0,.13,0,.25.03.38.17,1.04.76,7.28-8.79,9.02-9.86,1.8-151.31.2-166.75.02-.78,0-2.33-.1-3.1-.17-3.96-.36-11.04,1.72-11.04-9.01Z"/><path class="cls-2" d="m12.5,20.33h164.83c6.89,0,12.48,5.59,12.48,12.48v83.29c0,6.89-5.59,12.48-12.48,12.48H9.88C4.44,128.59.02,124.17.02,118.73V32.81C.02,25.93,5.61,20.33,12.5,20.33Z"/></g></svg>